{"title":"Mr Poppers Penguins 2011 CAM XViD DTRG","uid":6527976,"size":1008030619,"categoryP":"video","categoryS":"movies","magnet":"?xt=urn:btih:379ac74318eb632eb4d5fce0bad19d7499a7cf55&amp;dn=Mr+Poppers+Penguins+2011+CAM+XViD+DTRG&amp;tr=udp%3A%2F%2Ftracker.openbittorrent.com%3A80&amp;tr=udp%3A%2F%2Fopen.demonii.com%3A1337&amp;tr=udp%3A%2F%2Ftracker.coppersurfer.tk%3A6969&amp;tr=udp%3A%2F%2Fexodus.desync.com%3A6969","seeders":1,"leechers":0,"uploader":"SAFCukO09","files":3,"time":1310216600,"description":"Format : AVI\nFormat/Info : Audio Video Interleave\nFile size : 961 MiB\nDuration : 1h 27mn\nOverall bit rate : 1 540 Kbps\nWriting application : VirtualDubMod 1.5.10.3 | www.virtualdub-fr.org || (build 2550/release)\nWriting library : VirtualDub build 32842/release\n\nVideo\nID : 0\nFormat : MPEG-4 Visual\nFormat profile : Advanced Simple@L5\nFormat settings, BVOP : 2\nFormat settings, QPel : No\nFormat settings, GMC : No warppoints\nFormat settings, Matrix : Default (H.263)\nMuxing mode : Packed bitstream\nCodec ID : XVID\nCodec ID/Hint : XviD\nDuration : 1h 27mn\nBit rate : 1 402 Kbps\nWidth : 672 pixels\nHeight : 372 pixels\nDisplay aspect ratio : 16:9\nFrame rate : 25.000 fps\nColor space : YUV\nChroma subsampling : 4:2:0\nBit depth : 8 bits\nScan type : Progressive\nCompression mode : Lossy\nBits/(Pixel*Frame) : 0.224\nStream size : 875 MiB (91%)\nWriting library : XviD 64\n\nAudio\nID : 1\nFormat : MPEG Audio\nFormat version : Version 1\nFormat profile : Layer 3\nCodec ID : 55\nCodec ID/Hint : MP3\nDuration : 1h 27mn\nBit rate mode : Constant\nBit rate : 128 Kbps\nChannel(s) : 2 channels\nSampling rate : 44.1 KHz\nCompression mode : Lossy\nStream size : 79.9 MiB (8%)\nAlignment : Split accross interleaves\nInterleave, duration : 40 ms (1.00 video frame)\nInterleave, preload duration : 500 ms\n\n\n\n\n\n &lt;a href=&quot;\nhttp://www.imdb.com/title/tt1396218/&quot; rel=&quot;nofollow&quot; target=&quot;_NEW&quot;&gt;\nhttp://www.imdb.com/title/tt1396218/&lt;/a&gt;\n\n\n\n\n\n\nUsers: 5.7/10 (1,930 votes) 32 reviews | Critics: 80 reviews Metascore: 53/100 (based on 29 reviews from Metacritic.com)\n\nThe life of a businessman begins to change after he inherits six penguins, and as he transforms his apartment into a winter wonderland, his professional side starts to unravel.\nDirector:\nMark Waters\nWriters:\nSean Anders (screenplay), John Morris (screenplay), and 3 more credits Ã‚Â»\nStars:\nJim Carrey, Carla Gugino and Angela Lansbury\n\n\n\n\n\n\n\n\n\n\n &lt;a href=&quot;\nhttp://img801.imageshack.us/img801/7362/vlcsnap2011070909h05m19.png&quot; rel=&quot;nofollow&quot; target=&quot;_NEW&quot;&gt;\nhttp://img801.imageshack.us/img801/7362/vlcsnap2011070909h05m19.png&lt;/a&gt;\n\n\n\n\n\n\nSource Used\n\n\n\nVIDEO: ........... EPID.......... Thanks\n\nAUDIO: ........... FOOKKNOWS .............Thanks\n\n\nFew filters my way of doing stuff so\n\nEnjoy\n\n\n\n\n\nGreetz to IMAGiNE,Flawl3ss,DiLLoN,BDK,NOiR,TOXiC,THC,Ez,Rx,Boobyblue,TaRiQ786,BHRG\n","torrent":{"xt":"urn:btih:379ac74318eb632eb4d5fce0bad19d7499a7cf55","amp;dn":"Mr+Poppers+Penguins+2011+CAM+XViD+DTRG","amp;tr":["udp%3A%2F%2Ftracker.openbittorrent.com%3A80","udp%3A%2F%2Fopen.demonii.com%3A1337","udp%3A%2F%2Ftracker.coppersurfer.tk%3A6969","udp%3A%2F%2Fexodus.desync.com%3A6969"],"infoHash":"379ac74318eb632eb4d5fce0bad19d7499a7cf55","infoHashBuffer":{"type":"Buffer","data":[55,154,199,67,24,235,99,46,180,213,252,224,186,209,157,116,153,167,207,85]},"announce":[],"urlList":[]}}